<svg width="24" height="24" viewBox="0 0 24 24" fill="none" xmlns="http://www.w3.org/2000/svg">
<path fill-rule="evenodd" clip-rule="evenodd" d="M11.7016 2.02587C10.9927 2.13622 10.2893 2.53867 9.78922 3.12001C9.20202 3.80262 8.86782 4.62844 8.76977 5.6391C8.73903 5.95602 8.73698 6.19104 8.7623 6.49924C8.86786 7.78436 9.32234 8.95901 10.3205 10.5267C10.6712 11.0773 10.842 11.3787 10.8174 11.4033C10.8113 11.4094 10.6471 11.3963 10.4526 11.3741C10.2581 11.3519 9.92127 11.3136 9.70401 11.289C9.48675 11.2643 9.14336 11.2204 8.94091 11.1913C8.73847 11.1622 8.18096 11.0931 7.70201 11.0379C7.22305 10.9826 6.76821 10.9288 6.69124 10.9183C6.61427 10.9079 6.5464 10.9042 6.54042 10.9102C6.52728 10.9233 6.50155 12.0478 6.50007 12.6734C6.49928 13.0069 6.50481 13.131 6.52146 13.153C6.54128 13.1793 6.56482 13.1808 6.72345 13.1659C6.82221 13.1566 7.14944 13.1328 7.45064 13.1129C7.75183 13.0931 8.03463 13.0725 8.07907 13.0673C8.3136 13.0397 10.8219 12.8571 11.2212 12.8385L11.32 12.8339L11.3138 12.9416C11.3079 13.0428 11.2967 13.1454 11.2047 13.9381C11.1846 14.111 11.1563 14.3655 11.1417 14.5037C11.1272 14.642 11.0618 15.2318 10.9964 15.8144C10.9311 16.3971 10.8698 16.9546 10.8602 17.0534C10.8438 17.222 10.8256 17.3818 10.7359 18.1441C10.6998 18.4508 10.6109 19.2565 10.5749 19.603C10.5647 19.7017 10.5163 20.13 10.4675 20.5546C10.3728 21.3777 10.35 21.5935 10.3311 21.8429L10.3192 22H13.8965V21.9191C13.8965 21.8747 13.8764 21.6706 13.8519 21.4658C13.7945 20.9865 13.7406 20.5259 13.7076 20.2314C13.6631 19.8354 13.628 19.5338 13.5633 18.9925C13.5291 18.7061 13.4769 18.2617 13.4473 18.005C13.4177 17.7482 13.3695 17.3361 13.3402 17.0893C13.3109 16.8424 13.2542 16.3576 13.2143 16.012C13.1743 15.6663 13.1137 15.1532 13.0796 14.8718C12.9338 13.6704 12.8708 13.1087 12.8606 12.9191L12.8496 12.7171L12.9287 12.7265C12.9722 12.7316 13.4602 12.7718 14.0132 12.8157C15.4491 12.9297 15.6819 12.9474 16.0242 12.9684C16.1921 12.9787 16.5072 13.003 16.7245 13.0223C17.1697 13.062 17.4599 13.074 17.4804 13.0535C17.488 13.046 17.5003 12.9288 17.5078 12.7932C17.529 12.4093 17.5486 11.064 17.5341 10.9867L17.5211 10.9175L17.3562 10.9265C17.2655 10.9315 17.0297 10.9562 16.8322 10.9816C16.443 11.0316 15.8057 11.1092 15.1803 11.1828C14.1908 11.2993 13.8415 11.3426 13.2995 11.4157C13.2412 11.4236 13.2322 11.4201 13.2322 11.3889C13.2322 11.3692 13.2773 11.2999 13.3324 11.235C13.5107 11.0248 13.769 10.6459 13.937 10.3483C14.7614 8.88744 15.0954 7.93978 15.2461 6.63406C15.2746 6.38689 15.2744 5.66854 15.2458 5.43636C15.1353 4.54064 14.8851 3.8566 14.4382 3.2286C14.3081 3.0459 13.9298 2.66156 13.7439 2.52327C13.3958 2.2643 13.0096 2.09669 12.5969 2.02548C12.3991 1.99134 11.9221 1.99154 11.7016 2.02587ZM12.4681 3.46035C12.9669 3.60848 13.407 4.02832 13.6913 4.62732C13.9327 5.13589 14.0462 5.67305 14.0465 6.30719C14.0467 6.76282 13.987 7.22624 13.8602 7.75436C13.6486 8.63522 13.2569 9.49648 12.6481 10.4189C12.5074 10.6322 12.1273 11.1551 12.113 11.1551C12.0749 11.1551 11.6111 10.4638 11.2094 9.80845C11.011 9.48468 10.7108 8.89494 10.5651 8.54261C10.3573 8.04017 10.1743 7.35039 10.1077 6.81891C10.0784 6.58555 10.0833 6.05007 10.1169 5.79547C10.2004 5.16334 10.381 4.6353 10.654 4.22572C10.9524 3.77804 11.2938 3.53127 11.7619 3.42505C11.9411 3.38438 12.2671 3.40068 12.4681 3.46035Z" fill="black"/>
</svg>
